<?xml version="1.0" encoding="UTF-8"?>
<svg id="Layer_1" xmlns="http://www.w3.org/2000/svg" version="1.1" viewBox="0 0 566.9 368.5">
  <!-- Generator: Adobe Illustrator 29.3.0, SVG Export Plug-In . SVG Version: 2.1.0 Build 146)  -->
  <defs>
    <style>
      .st0 {
        fill: #3d6db5;
      }

      .st1 {
        fill: #1c3b6b;
      }

      .st2 {
        fill: #fff;
        stroke: #231f20;
        stroke-miterlimit: 10;
        stroke-width: .2px;
      }

      .st3 {
        fill: #a0bddf;
      }
    </style>
  </defs>
  <g>
    <path d="M245.3-342.7h-54.4v-82.1c0-30,24.3-54.4,54.4-54.4h0v136.4Z"/>
    <path class="st3" d="M372.6-479.2h-41.6s0,105.4,0,105.4c0,17.2,18.6,31.1,41.6,31.1h0v-136.4Z"/>
    <circle class="st1" cx="276.8" cy="-453.4" r="31.4"/>
    <path class="st0" d="M287.4-342.7h0c-23.3,0-42.1-18.9-42.1-42.1v-37.1h85.7v35.7c0,24.1-19.5,43.6-43.6,43.6Z"/>
    <path class="st2" d="M427-343.3l-32.8-19c-20.7-12-27.8-38.5-15.8-59.3h0s32.8,19,32.8,19c20.7,12,27.8,38.5,15.8,59.3h0Z"/>
  </g>
  <g>
    <polygon points="402.6 105.7 343.3 165 206.5 165 138.4 233.1 40.6 135.4 138.3 37.6 206.8 105.9 402.6 105.7"/>
    <polygon points="525.4 233.1 427.7 330.9 359.2 262.5 163.1 262.8 222.6 203.5 359.5 203.5 427.6 135.3 525.4 233.1"/>
  </g>
</svg>